<svg width="436" height="436" viewBox="0 0 436 436" fill="none" xmlns="http://www.w3.org/2000/svg">
<path d="M325.282 0.178223H110.344C49.4025 0.178223 0 49.5828 0 110.527V325.473C0 386.418 49.4025 435.822 110.344 435.822H325.282C386.223 435.822 435.626 386.418 435.626 325.473V110.527C435.626 49.5828 386.223 0.178223 325.282 0.178223Z" fill="url(#paint0_linear_103_35)"/>
<path d="M145.14 321.836H96.5673C93.9367 321.829 91.416 320.781 89.5581 318.919C87.7001 317.057 86.6568 314.534 86.6568 311.903V237.103C86.6509 235.055 85.8339 233.095 84.3844 231.649C82.9348 230.205 80.9714 229.392 78.9244 229.392C76.8811 229.399 74.9234 230.211 73.4785 231.657C72.0337 233.102 71.2195 235.06 71.2139 237.103V311.903C71.2195 318.625 73.8925 325.07 78.6461 329.825C83.3994 334.578 89.8449 337.251 96.5673 337.257H145.14V321.836Z" fill="white"/>
<path d="M356.636 192.515H347.923V207.958H349.034V311.903C349.027 314.536 347.98 317.059 346.117 318.921C344.257 320.781 341.735 321.829 339.102 321.836H290.355V337.257H339.102C345.823 337.251 352.269 334.578 357.023 329.825C361.776 325.07 364.449 318.625 364.455 311.903V200.226C364.455 199.204 364.253 198.192 363.858 197.25C363.464 196.307 362.887 195.452 362.159 194.734C361.432 194.017 360.567 193.451 359.62 193.07C358.672 192.689 357.657 192.5 356.636 192.515Z" fill="white"/>
<path d="M217.236 262.174C211.449 262.183 205.717 261.052 200.369 258.842C195.02 256.633 190.16 253.392 186.067 249.301C177.812 241.028 173.176 229.817 173.176 218.131C173.176 206.443 177.812 195.234 186.067 186.96C194.34 178.706 205.549 174.069 217.236 174.069C228.921 174.069 240.132 178.706 248.405 186.96C249.84 188.409 250.648 190.366 250.648 192.406C250.648 194.446 249.84 196.403 248.405 197.851C246.956 199.288 244.998 200.094 242.959 200.094C240.918 200.094 238.962 199.288 237.514 197.851C232.138 192.483 224.855 189.468 217.257 189.468C209.661 189.468 202.375 192.483 197.001 197.851C191.633 203.226 188.617 210.512 188.617 218.109C188.617 225.707 191.633 232.99 197.001 238.366C202.381 243.725 209.665 246.733 217.257 246.733C224.85 246.733 232.134 243.725 237.514 238.366C238.228 237.65 239.078 237.081 240.012 236.693C240.947 236.306 241.946 236.105 242.959 236.105C243.97 236.105 244.972 236.306 245.906 236.693C246.841 237.081 247.69 237.65 248.405 238.366C249.84 239.815 250.648 241.771 250.648 243.812C250.648 245.853 249.84 247.809 248.405 249.257C244.314 253.355 239.457 256.607 234.107 258.822C228.758 261.039 223.025 262.179 217.236 262.174Z" fill="white"/>
<path d="M217.758 357.014C216.506 357.012 215.272 356.705 214.165 356.121C213.057 355.537 212.107 354.692 211.398 353.659L151.216 265.921C140.991 251.028 136.065 233.13 137.23 215.102C138.395 197.074 145.584 179.96 157.642 166.507C165.209 158.048 174.474 151.279 184.832 146.64C195.19 142.001 206.409 139.597 217.758 139.584C229.102 139.58 240.317 141.969 250.672 146.598C261.029 151.226 270.29 157.988 277.853 166.442C289.926 179.882 297.136 196.989 298.321 215.018C299.506 233.047 294.598 250.95 284.387 265.855L224.206 353.659C223.489 354.705 222.524 355.557 221.4 356.14C220.276 356.726 219.026 357.027 217.758 357.014ZM217.758 155.006C208.579 155.018 199.506 156.965 191.13 160.718C182.753 164.47 175.261 169.946 169.142 176.788C159.373 187.662 153.547 201.508 152.602 216.096C151.658 230.684 155.65 245.165 163.937 257.208L217.758 335.624L271.558 257.208C279.846 245.171 283.84 230.695 282.9 216.109C281.961 201.526 276.139 187.683 266.374 176.81C260.258 169.964 252.765 164.484 244.39 160.727C236.013 156.971 226.939 155.021 217.758 155.006Z" fill="white"/>
<path d="M338.993 118.02H291.553C289.645 118.015 287.779 117.463 286.178 116.428C284.575 115.393 283.303 113.919 282.514 112.182L274.259 93.8634C272.244 89.4211 268.994 85.6523 264.897 83.0067C260.798 80.361 256.026 78.9502 251.149 78.9426H184.041C179.237 78.9539 174.534 80.324 170.475 82.8949C166.417 85.4657 163.168 89.1323 161.105 93.4713L152.218 112.335C151.412 114.033 150.141 115.468 148.553 116.474C146.965 117.48 145.125 118.016 143.245 118.02H96.5237C89.8031 118.031 83.3611 120.706 78.6088 125.459C73.8566 130.211 71.1819 136.653 71.1703 143.374V200.226C71.1675 201.24 71.3648 202.245 71.751 203.183C72.1372 204.121 72.7046 204.974 73.421 205.692C74.1372 206.411 74.9881 206.98 75.9252 207.369C76.862 207.758 77.8665 207.958 78.8809 207.958H88.7696V192.515H86.5915V143.374C86.5971 140.744 87.6461 138.223 89.5082 136.365C91.3703 134.507 93.8932 133.463 96.5237 133.463H143.245C148.048 133.451 152.751 132.078 156.806 129.503C160.862 126.928 164.104 123.256 166.158 118.913L175.067 100.071C175.868 98.3673 177.137 96.9259 178.726 95.9155C180.315 94.905 182.158 94.3672 184.041 94.3644H251.149C253.055 94.3742 254.919 94.9289 256.52 95.9634C258.123 96.9976 259.395 98.4683 260.188 100.202L268.443 118.543C270.458 122.985 273.708 126.754 277.805 129.399C281.904 132.045 286.676 133.456 291.553 133.463H338.993C341.624 133.463 344.146 134.507 346.009 136.365C347.871 138.223 348.919 140.744 348.925 143.374V167.596C348.923 168.61 349.119 169.615 349.507 170.554C349.892 171.492 350.459 172.344 351.175 173.062C351.892 173.781 352.743 174.351 353.68 174.74C354.617 175.129 355.621 175.329 356.636 175.329C357.651 175.329 358.655 175.129 359.591 174.74C360.528 174.351 361.38 173.781 362.096 173.062C362.813 172.344 363.379 171.492 363.765 170.554C364.152 169.615 364.348 168.61 364.346 167.596V143.374C364.335 136.653 361.661 130.211 356.908 125.459C352.155 120.706 345.712 118.031 338.993 118.02Z" fill="white"/>
<path d="M150.737 200.226C150.737 198.181 149.925 196.22 148.479 194.774C147.033 193.328 145.072 192.515 143.027 192.515H86.6568V207.959H143.027C144.041 207.959 145.046 207.758 145.982 207.37C146.919 206.981 147.77 206.411 148.487 205.693C149.203 204.974 149.77 204.122 150.157 203.184C150.543 202.246 150.74 201.24 150.737 200.226Z" fill="url(#paint1_linear_103_35)"/>
<path d="M284.187 200.225C284.187 198.18 284.999 196.219 286.445 194.773C287.892 193.326 289.854 192.514 291.897 192.514H348.267V207.958H291.897C290.885 207.958 289.88 207.758 288.942 207.369C288.005 206.98 287.156 206.41 286.439 205.692C285.722 204.973 285.154 204.121 284.768 203.182C284.383 202.244 284.185 201.239 284.187 200.225Z" fill="url(#paint2_linear_103_35)"/>
<path d="M226.83 329.525C226.83 327.479 227.643 325.519 229.089 324.073C230.535 322.626 232.496 321.814 234.541 321.814H290.933V337.236H234.475C232.443 337.212 230.503 336.39 229.071 334.948C227.64 333.504 226.837 331.557 226.83 329.525Z" fill="url(#paint3_linear_103_35)"/>
<path d="M208.534 329.568C208.534 327.523 207.721 325.563 206.275 324.116C204.83 322.67 202.868 321.857 200.823 321.857H144.432V337.279H200.889C202.92 337.255 204.862 336.434 206.292 334.992C207.723 333.548 208.528 331.601 208.534 329.568Z" fill="url(#paint4_linear_103_35)"/>
<defs>
<linearGradient id="paint0_linear_103_35" x1="82.6382" y1="46.8792" x2="254.719" y2="264.694" gradientUnits="userSpaceOnUse">
<stop stop-color="#3A85DB"/>
<stop offset="1" stop-color="#0967D2"/>
</linearGradient>
<linearGradient id="paint1_linear_103_35" x1="86.5915" y1="200.226" x2="150.672" y2="200.226" gradientUnits="userSpaceOnUse">
<stop offset="0.1" stop-color="white"/>
<stop offset="0.85" stop-color="white" stop-opacity="0"/>
</linearGradient>
<linearGradient id="paint2_linear_103_35" x1="348.333" y1="200.225" x2="284.252" y2="200.225" gradientUnits="userSpaceOnUse">
<stop offset="0.1" stop-color="white"/>
<stop offset="0.85" stop-color="white" stop-opacity="0"/>
</linearGradient>
<linearGradient id="paint3_linear_103_35" x1="290.355" y1="329.547" x2="226.253" y2="329.547" gradientUnits="userSpaceOnUse">
<stop stop-color="white"/>
<stop offset="0.85" stop-color="white" stop-opacity="0"/>
</linearGradient>
<linearGradient id="paint4_linear_103_35" x1="145.14" y1="329.547" x2="209.242" y2="329.547" gradientUnits="userSpaceOnUse">
<stop stop-color="white"/>
<stop offset="0.85" stop-color="white" stop-opacity="0"/>
</linearGradient>
</defs>
</svg>
